<?xml version="1.0" encoding="utf-8"?>
<!-- Generator: Adobe Illustrator 27.1.1, SVG Export Plug-In . SVG Version: 6.00 Build 0)  -->
<svg version="1.1" id="Calque_1" xmlns="http://www.w3.org/2000/svg" xmlns:xlink="http://www.w3.org/1999/xlink" x="0px" y="0px"
	 viewBox="0 0 51 46.2" style="enable-background:new 0 0 51 46.2;" xml:space="preserve">
<style type="text/css">
	.st0{fill:#FFFFFF;}
	.st1{fill:#72473B;}
</style>
<path class="st1" d="M4.6,29.1V14.5V6.4c0-2.2,2.5-3.5,4.3-2.2l14.3,9.7c0.6,0.4,0.6,1.4,0,1.8L4.6,29.1z"/>
<path class="st1" d="M4.6,31.3v0.2v5.8c0,3.3,2.6,5.9,5.9,5.9l29.6,0c3.3,0,5.9-2.6,5.9-5.9v-5.2V32V18.3v-12c0-2.2-2.5-3.5-4.3-2.2
	L25.8,15.9L4.6,31.3z"/>
<g>
	<path class="st0" d="M29.9,30.2l-8,4.1c-0.8,0.4-1.8-0.2-1.8-1.1V25c0-0.9,1-1.5,1.8-1.1l8,4.1C30.8,28.5,30.8,29.7,29.9,30.2z"/>
</g>
</svg>
